<mxfile host="app.diagrams.net" modified="2022-09-29T17:32:10.376Z" agent="5.0 (Windows NT 10.0; Win64; x64) AppleWebKit/537.36 (KHTML, like Gecko) Chrome/105.0.0.0 Safari/537.36" etag="ONDRM7kswnJ0DCuwP9_Q" version="20.3.7" type="github">
  <diagram id="Ach35dHcFJQdptmvtTHI" name="Страница 1">
    <mxGraphModel dx="2765" dy="1034" grid="0" gridSize="10" guides="1" tooltips="1" connect="1" arrows="1" fold="1" page="1" pageScale="1" pageWidth="827" pageHeight="1169" math="0" shadow="0">
      <root>
        <mxCell id="0" />
        <mxCell id="1" parent="0" />
        <mxCell id="W8EOp4MmjeI2fesuO7Yh-2" value="Backend service" style="swimlane;horizontal=0;" parent="1" vertex="1">
          <mxGeometry x="40" y="390" width="270" height="400" as="geometry">
            <mxRectangle x="70" y="50" width="40" height="150" as="alternateBounds" />
          </mxGeometry>
        </mxCell>
        <mxCell id="W8EOp4MmjeI2fesuO7Yh-17" value="" style="edgeStyle=orthogonalEdgeStyle;rounded=0;orthogonalLoop=1;jettySize=auto;html=1;" parent="W8EOp4MmjeI2fesuO7Yh-2" source="W8EOp4MmjeI2fesuO7Yh-15" target="W8EOp4MmjeI2fesuO7Yh-16" edge="1">
          <mxGeometry relative="1" as="geometry">
            <Array as="points">
              <mxPoint x="100" y="160" />
              <mxPoint x="100" y="160" />
            </Array>
          </mxGeometry>
        </mxCell>
        <mxCell id="W8EOp4MmjeI2fesuO7Yh-15" value="BLL" style="swimlane;startSize=20;" parent="W8EOp4MmjeI2fesuO7Yh-2" vertex="1">
          <mxGeometry x="40" y="20" width="120" height="70" as="geometry" />
        </mxCell>
        <mxCell id="W8EOp4MmjeI2fesuO7Yh-31" value="Interfaces" style="text;html=1;align=center;verticalAlign=middle;resizable=0;points=[];autosize=1;strokeColor=none;fillColor=none;fontSize=14;" parent="W8EOp4MmjeI2fesuO7Yh-15" vertex="1">
          <mxGeometry x="20" y="20" width="80" height="30" as="geometry" />
        </mxCell>
        <mxCell id="W8EOp4MmjeI2fesuO7Yh-35" value="Services" style="text;html=1;align=center;verticalAlign=middle;resizable=0;points=[];autosize=1;strokeColor=none;fillColor=none;fontSize=14;" parent="W8EOp4MmjeI2fesuO7Yh-15" vertex="1">
          <mxGeometry x="20" y="40" width="80" height="30" as="geometry" />
        </mxCell>
        <mxCell id="W8EOp4MmjeI2fesuO7Yh-19" value="" style="edgeStyle=orthogonalEdgeStyle;rounded=0;orthogonalLoop=1;jettySize=auto;html=1;" parent="W8EOp4MmjeI2fesuO7Yh-2" source="W8EOp4MmjeI2fesuO7Yh-16" target="W8EOp4MmjeI2fesuO7Yh-18" edge="1">
          <mxGeometry relative="1" as="geometry" />
        </mxCell>
        <mxCell id="W8EOp4MmjeI2fesuO7Yh-50" style="edgeStyle=orthogonalEdgeStyle;rounded=0;orthogonalLoop=1;jettySize=auto;html=1;exitX=1;exitY=0.75;exitDx=0;exitDy=0;dashed=1;strokeWidth=1;fontSize=14;startArrow=none;startFill=0;endArrow=classicThin;endFill=1;entryX=0.5;entryY=1;entryDx=0;entryDy=0;" parent="W8EOp4MmjeI2fesuO7Yh-2" source="W8EOp4MmjeI2fesuO7Yh-16" target="k-F8BIPgYVoysviiwcqS-8" edge="1">
          <mxGeometry relative="1" as="geometry">
            <mxPoint x="220" y="230" as="targetPoint" />
          </mxGeometry>
        </mxCell>
        <mxCell id="W8EOp4MmjeI2fesuO7Yh-16" value="DAL" style="swimlane;startSize=20;" parent="W8EOp4MmjeI2fesuO7Yh-2" vertex="1">
          <mxGeometry x="40" y="170" width="120" height="95" as="geometry" />
        </mxCell>
        <mxCell id="W8EOp4MmjeI2fesuO7Yh-36" value="Data repository" style="text;html=1;align=center;verticalAlign=middle;resizable=0;points=[];autosize=1;strokeColor=none;fillColor=none;fontSize=14;" parent="W8EOp4MmjeI2fesuO7Yh-16" vertex="1">
          <mxGeometry y="20" width="120" height="30" as="geometry" />
        </mxCell>
        <mxCell id="W8EOp4MmjeI2fesuO7Yh-37" value="DB Context&lt;br&gt;" style="text;html=1;align=center;verticalAlign=middle;resizable=0;points=[];autosize=1;strokeColor=none;fillColor=none;fontSize=14;" parent="W8EOp4MmjeI2fesuO7Yh-16" vertex="1">
          <mxGeometry x="10" y="43" width="100" height="30" as="geometry" />
        </mxCell>
        <mxCell id="W8EOp4MmjeI2fesuO7Yh-38" value="DAL model" style="text;html=1;align=center;verticalAlign=middle;resizable=0;points=[];autosize=1;strokeColor=none;fillColor=none;fontSize=14;" parent="W8EOp4MmjeI2fesuO7Yh-16" vertex="1">
          <mxGeometry x="15" y="65" width="90" height="30" as="geometry" />
        </mxCell>
        <mxCell id="W8EOp4MmjeI2fesuO7Yh-49" style="edgeStyle=orthogonalEdgeStyle;rounded=0;orthogonalLoop=1;jettySize=auto;html=1;exitX=0.75;exitY=0;exitDx=0;exitDy=0;entryX=0.839;entryY=1.024;entryDx=0;entryDy=0;entryPerimeter=0;dashed=1;strokeWidth=1;fontSize=14;startArrow=classicThin;startFill=1;endArrow=classicThin;endFill=1;" parent="W8EOp4MmjeI2fesuO7Yh-2" source="W8EOp4MmjeI2fesuO7Yh-18" target="W8EOp4MmjeI2fesuO7Yh-38" edge="1">
          <mxGeometry relative="1" as="geometry" />
        </mxCell>
        <mxCell id="W8EOp4MmjeI2fesuO7Yh-18" value="DM" style="swimlane;startSize=20;" parent="W8EOp4MmjeI2fesuO7Yh-2" vertex="1">
          <mxGeometry x="40" y="300" width="120" height="60" as="geometry" />
        </mxCell>
        <mxCell id="W8EOp4MmjeI2fesuO7Yh-39" value="Objects data &lt;br&gt;models" style="text;html=1;align=center;verticalAlign=middle;resizable=0;points=[];autosize=1;strokeColor=none;fillColor=none;fontSize=14;" parent="W8EOp4MmjeI2fesuO7Yh-18" vertex="1">
          <mxGeometry x="10" y="14" width="100" height="50" as="geometry" />
        </mxCell>
        <mxCell id="W8EOp4MmjeI2fesuO7Yh-51" style="edgeStyle=orthogonalEdgeStyle;rounded=0;orthogonalLoop=1;jettySize=auto;html=1;exitX=0.5;exitY=0;exitDx=0;exitDy=0;exitPerimeter=0;entryX=1;entryY=0.75;entryDx=0;entryDy=0;dashed=1;strokeWidth=1;fontSize=14;startArrow=none;startFill=0;endArrow=classicThin;endFill=1;" parent="W8EOp4MmjeI2fesuO7Yh-2" source="W8EOp4MmjeI2fesuO7Yh-27" target="W8EOp4MmjeI2fesuO7Yh-15" edge="1">
          <mxGeometry relative="1" as="geometry" />
        </mxCell>
        <mxCell id="k-F8BIPgYVoysviiwcqS-9" value="" style="group" parent="W8EOp4MmjeI2fesuO7Yh-2" vertex="1" connectable="0">
          <mxGeometry x="200" y="100" width="60" height="100" as="geometry" />
        </mxCell>
        <mxCell id="W8EOp4MmjeI2fesuO7Yh-27" value="" style="shape=cylinder3;whiteSpace=wrap;html=1;boundedLbl=1;backgroundOutline=1;size=15;fontSize=16;" parent="k-F8BIPgYVoysviiwcqS-9" vertex="1">
          <mxGeometry x="2" width="56" height="70" as="geometry" />
        </mxCell>
        <mxCell id="k-F8BIPgYVoysviiwcqS-8" value="MongoDB" style="text;html=1;strokeColor=none;fillColor=none;align=center;verticalAlign=middle;whiteSpace=wrap;rounded=0;fontSize=14;" parent="k-F8BIPgYVoysviiwcqS-9" vertex="1">
          <mxGeometry y="70" width="60" height="30" as="geometry" />
        </mxCell>
        <mxCell id="W8EOp4MmjeI2fesuO7Yh-21" style="edgeStyle=orthogonalEdgeStyle;rounded=0;orthogonalLoop=1;jettySize=auto;html=1;exitX=0.5;exitY=1;exitDx=0;exitDy=0;" parent="1" source="W8EOp4MmjeI2fesuO7Yh-18" target="W8EOp4MmjeI2fesuO7Yh-1" edge="1">
          <mxGeometry relative="1" as="geometry">
            <Array as="points">
              <mxPoint x="140" y="870" />
            </Array>
          </mxGeometry>
        </mxCell>
        <mxCell id="W8EOp4MmjeI2fesuO7Yh-25" value="Legend" style="swimlane;" parent="1" vertex="1">
          <mxGeometry x="40" y="1010" width="160" height="150" as="geometry" />
        </mxCell>
        <mxCell id="W8EOp4MmjeI2fesuO7Yh-24" value="" style="group" parent="W8EOp4MmjeI2fesuO7Yh-25" vertex="1" connectable="0">
          <mxGeometry x="20" y="50" width="90" height="30" as="geometry" />
        </mxCell>
        <mxCell id="W8EOp4MmjeI2fesuO7Yh-22" value="" style="endArrow=classic;html=1;rounded=0;" parent="W8EOp4MmjeI2fesuO7Yh-24" edge="1">
          <mxGeometry width="50" height="50" relative="1" as="geometry">
            <mxPoint x="10" as="sourcePoint" />
            <mxPoint x="90" as="targetPoint" />
          </mxGeometry>
        </mxCell>
        <mxCell id="W8EOp4MmjeI2fesuO7Yh-23" value="Call direction" style="text;html=1;strokeColor=none;fillColor=none;align=center;verticalAlign=middle;whiteSpace=wrap;rounded=0;" parent="W8EOp4MmjeI2fesuO7Yh-24" vertex="1">
          <mxGeometry width="90" height="30" as="geometry" />
        </mxCell>
        <mxCell id="W8EOp4MmjeI2fesuO7Yh-47" value="" style="group" parent="W8EOp4MmjeI2fesuO7Yh-25" vertex="1" connectable="0">
          <mxGeometry x="30" y="90" width="80" height="40" as="geometry" />
        </mxCell>
        <mxCell id="W8EOp4MmjeI2fesuO7Yh-44" value="" style="endArrow=classicThin;html=1;rounded=0;fontSize=14;dashed=1;strokeWidth=1;endFill=1;" parent="W8EOp4MmjeI2fesuO7Yh-47" edge="1">
          <mxGeometry width="50" height="50" relative="1" as="geometry">
            <mxPoint as="sourcePoint" />
            <mxPoint x="80" as="targetPoint" />
          </mxGeometry>
        </mxCell>
        <mxCell id="W8EOp4MmjeI2fesuO7Yh-46" value="Data direction" style="text;html=1;strokeColor=none;fillColor=none;align=center;verticalAlign=middle;whiteSpace=wrap;rounded=0;fontSize=14;" parent="W8EOp4MmjeI2fesuO7Yh-47" vertex="1">
          <mxGeometry x="5" y="10" width="60" height="30" as="geometry" />
        </mxCell>
        <mxCell id="k-F8BIPgYVoysviiwcqS-5" style="edgeStyle=orthogonalEdgeStyle;rounded=0;orthogonalLoop=1;jettySize=auto;html=1;fontSize=14;startArrow=none;startFill=0;" parent="1" source="W8EOp4MmjeI2fesuO7Yh-26" edge="1">
          <mxGeometry relative="1" as="geometry">
            <mxPoint x="650" y="180" as="targetPoint" />
            <Array as="points">
              <mxPoint x="710" y="180" />
              <mxPoint x="710" y="180" />
            </Array>
          </mxGeometry>
        </mxCell>
        <mxCell id="W8EOp4MmjeI2fesuO7Yh-26" value="Client" style="shape=umlActor;verticalLabelPosition=bottom;verticalAlign=top;html=1;outlineConnect=0;fontSize=16;" parent="1" vertex="1">
          <mxGeometry x="750" y="130" width="55" height="110" as="geometry" />
        </mxCell>
        <mxCell id="W8EOp4MmjeI2fesuO7Yh-40" value="API" style="swimlane;fontSize=14;" parent="1" vertex="1">
          <mxGeometry x="440" y="140" width="210" height="235" as="geometry" />
        </mxCell>
        <mxCell id="W8EOp4MmjeI2fesuO7Yh-42" value="Auth API" style="swimlane;fontSize=14;" parent="W8EOp4MmjeI2fesuO7Yh-40" vertex="1">
          <mxGeometry x="45" y="32.5" width="120" height="76" as="geometry" />
        </mxCell>
        <mxCell id="W8EOp4MmjeI2fesuO7Yh-43" value="JWT auth &lt;br&gt;controller" style="text;html=1;align=center;verticalAlign=middle;resizable=0;points=[];autosize=1;strokeColor=none;fillColor=none;fontSize=14;" parent="W8EOp4MmjeI2fesuO7Yh-42" vertex="1">
          <mxGeometry x="20" y="26" width="80" height="50" as="geometry" />
        </mxCell>
        <mxCell id="k-F8BIPgYVoysviiwcqS-3" value="HTTP API" style="swimlane;" parent="W8EOp4MmjeI2fesuO7Yh-40" vertex="1">
          <mxGeometry x="45" y="147.5" width="120" height="75" as="geometry" />
        </mxCell>
        <mxCell id="k-F8BIPgYVoysviiwcqS-4" value="API controllers" style="text;html=1;align=center;verticalAlign=middle;resizable=0;points=[];autosize=1;strokeColor=none;fillColor=none;fontSize=14;" parent="k-F8BIPgYVoysviiwcqS-3" vertex="1">
          <mxGeometry x="5" y="32.5" width="110" height="30" as="geometry" />
        </mxCell>
        <mxCell id="8wZ1llkwqECcYyLgVRz_-2" value="" style="edgeStyle=orthogonalEdgeStyle;rounded=0;orthogonalLoop=1;jettySize=auto;html=1;entryX=0.5;entryY=0;entryDx=0;entryDy=0;" edge="1" parent="W8EOp4MmjeI2fesuO7Yh-40" source="W8EOp4MmjeI2fesuO7Yh-43" target="k-F8BIPgYVoysviiwcqS-3">
          <mxGeometry relative="1" as="geometry" />
        </mxCell>
        <mxCell id="W8EOp4MmjeI2fesuO7Yh-48" style="edgeStyle=orthogonalEdgeStyle;rounded=0;orthogonalLoop=1;jettySize=auto;html=1;exitX=1;exitY=0.5;exitDx=0;exitDy=0;exitPerimeter=0;entryX=0.9;entryY=0.92;entryDx=0;entryDy=0;entryPerimeter=0;dashed=1;strokeWidth=1;fontSize=14;endArrow=classicThin;endFill=1;startArrow=classicThin;startFill=1;" parent="1" source="W8EOp4MmjeI2fesuO7Yh-1" target="W8EOp4MmjeI2fesuO7Yh-39" edge="1">
          <mxGeometry relative="1" as="geometry" />
        </mxCell>
        <mxCell id="M-t3Y8hKI3yOIpSZZMev-1" value="User management service" style="swimlane;horizontal=0;" parent="1" vertex="1">
          <mxGeometry x="-418" y="19" width="270" height="240" as="geometry" />
        </mxCell>
        <mxCell id="M-t3Y8hKI3yOIpSZZMev-20" style="edgeStyle=orthogonalEdgeStyle;rounded=0;orthogonalLoop=1;jettySize=auto;html=1;exitX=0.5;exitY=1;exitDx=0;exitDy=0;entryX=0.5;entryY=0;entryDx=0;entryDy=0;startArrow=none;startFill=0;" parent="M-t3Y8hKI3yOIpSZZMev-1" source="M-t3Y8hKI3yOIpSZZMev-5" target="M-t3Y8hKI3yOIpSZZMev-6" edge="1">
          <mxGeometry relative="1" as="geometry">
            <Array as="points">
              <mxPoint x="100" y="90" />
              <mxPoint x="100" y="90" />
            </Array>
          </mxGeometry>
        </mxCell>
        <mxCell id="M-t3Y8hKI3yOIpSZZMev-5" value="User logic" style="swimlane;startSize=23;" parent="M-t3Y8hKI3yOIpSZZMev-1" vertex="1">
          <mxGeometry x="40" y="10" width="120" height="70" as="geometry" />
        </mxCell>
        <mxCell id="M-t3Y8hKI3yOIpSZZMev-10" value="Interfaces" style="text;html=1;align=center;verticalAlign=middle;resizable=0;points=[];autosize=1;strokeColor=none;fillColor=none;fontSize=14;" parent="M-t3Y8hKI3yOIpSZZMev-5" vertex="1">
          <mxGeometry x="20" y="20" width="80" height="30" as="geometry" />
        </mxCell>
        <mxCell id="M-t3Y8hKI3yOIpSZZMev-11" value="Services" style="text;html=1;align=center;verticalAlign=middle;resizable=0;points=[];autosize=1;strokeColor=none;fillColor=none;fontSize=14;" parent="M-t3Y8hKI3yOIpSZZMev-5" vertex="1">
          <mxGeometry x="20" y="40" width="80" height="30" as="geometry" />
        </mxCell>
        <mxCell id="M-t3Y8hKI3yOIpSZZMev-21" style="edgeStyle=orthogonalEdgeStyle;rounded=0;orthogonalLoop=1;jettySize=auto;html=1;exitX=0.75;exitY=0;exitDx=0;exitDy=0;entryX=0.881;entryY=1.004;entryDx=0;entryDy=0;entryPerimeter=0;startArrow=classicThin;startFill=1;dashed=1;" parent="M-t3Y8hKI3yOIpSZZMev-1" source="M-t3Y8hKI3yOIpSZZMev-6" target="M-t3Y8hKI3yOIpSZZMev-11" edge="1">
          <mxGeometry relative="1" as="geometry" />
        </mxCell>
        <mxCell id="M-t3Y8hKI3yOIpSZZMev-6" value="User DM" style="swimlane;startSize=23;" parent="M-t3Y8hKI3yOIpSZZMev-1" vertex="1">
          <mxGeometry x="40" y="110" width="120" height="120" as="geometry" />
        </mxCell>
        <mxCell id="M-t3Y8hKI3yOIpSZZMev-13" value="DB Context&lt;br&gt;" style="text;html=1;align=center;verticalAlign=middle;resizable=0;points=[];autosize=1;strokeColor=none;fillColor=none;fontSize=14;" parent="M-t3Y8hKI3yOIpSZZMev-6" vertex="1">
          <mxGeometry x="10" y="52" width="100" height="30" as="geometry" />
        </mxCell>
        <mxCell id="M-t3Y8hKI3yOIpSZZMev-12" value="Data repository" style="text;html=1;align=center;verticalAlign=middle;resizable=0;points=[];autosize=1;strokeColor=none;fillColor=none;fontSize=14;" parent="M-t3Y8hKI3yOIpSZZMev-6" vertex="1">
          <mxGeometry y="23.5" width="120" height="30" as="geometry" />
        </mxCell>
        <mxCell id="M-t3Y8hKI3yOIpSZZMev-14" value="Objects data &lt;br&gt;models" style="text;html=1;align=center;verticalAlign=middle;resizable=0;points=[];autosize=1;strokeColor=none;fillColor=none;fontSize=14;" parent="M-t3Y8hKI3yOIpSZZMev-6" vertex="1">
          <mxGeometry x="10" y="70" width="100" height="50" as="geometry" />
        </mxCell>
        <mxCell id="M-t3Y8hKI3yOIpSZZMev-2" style="edgeStyle=orthogonalEdgeStyle;rounded=0;orthogonalLoop=1;jettySize=auto;html=1;exitX=0;exitY=0.5;exitDx=0;exitDy=0;entryX=1;entryY=0.5;entryDx=0;entryDy=0;" parent="1" source="k-F8BIPgYVoysviiwcqS-3" target="W8EOp4MmjeI2fesuO7Yh-15" edge="1">
          <mxGeometry relative="1" as="geometry">
            <Array as="points">
              <mxPoint x="360" y="325" />
              <mxPoint x="360" y="445" />
            </Array>
          </mxGeometry>
        </mxCell>
        <mxCell id="M-t3Y8hKI3yOIpSZZMev-4" value="" style="group" parent="1" vertex="1" connectable="0">
          <mxGeometry x="40" y="860" width="80" height="100" as="geometry" />
        </mxCell>
        <mxCell id="W8EOp4MmjeI2fesuO7Yh-20" value="" style="group" parent="M-t3Y8hKI3yOIpSZZMev-4" vertex="1" connectable="0">
          <mxGeometry width="80" height="100" as="geometry" />
        </mxCell>
        <mxCell id="W8EOp4MmjeI2fesuO7Yh-10" value="PosgeSQL" style="text;html=1;align=center;verticalAlign=middle;resizable=0;points=[];autosize=1;strokeColor=none;fillColor=none;" parent="W8EOp4MmjeI2fesuO7Yh-20" vertex="1">
          <mxGeometry y="70" width="80" height="30" as="geometry" />
        </mxCell>
        <mxCell id="W8EOp4MmjeI2fesuO7Yh-1" value="" style="shape=cylinder3;whiteSpace=wrap;html=1;boundedLbl=1;backgroundOutline=1;size=15;" parent="M-t3Y8hKI3yOIpSZZMev-4" vertex="1">
          <mxGeometry width="80" height="70" as="geometry" />
        </mxCell>
        <mxCell id="M-t3Y8hKI3yOIpSZZMev-15" style="edgeStyle=orthogonalEdgeStyle;rounded=0;orthogonalLoop=1;jettySize=auto;html=1;exitX=1;exitY=0.75;exitDx=0;exitDy=0;dashed=1;startArrow=classicThin;startFill=1;" parent="1" source="M-t3Y8hKI3yOIpSZZMev-6" edge="1">
          <mxGeometry relative="1" as="geometry">
            <mxPoint x="230" y="220" as="targetPoint" />
          </mxGeometry>
        </mxCell>
        <mxCell id="M-t3Y8hKI3yOIpSZZMev-17" style="edgeStyle=orthogonalEdgeStyle;rounded=0;orthogonalLoop=1;jettySize=auto;html=1;entryX=0;entryY=0.75;entryDx=0;entryDy=0;dashed=1;startArrow=classicThin;startFill=1;" parent="1" target="k-F8BIPgYVoysviiwcqS-3" edge="1">
          <mxGeometry relative="1" as="geometry">
            <mxPoint x="200" y="430" as="sourcePoint" />
            <Array as="points">
              <mxPoint x="390" y="430" />
              <mxPoint x="390" y="344" />
            </Array>
          </mxGeometry>
        </mxCell>
        <mxCell id="M-t3Y8hKI3yOIpSZZMev-19" style="edgeStyle=orthogonalEdgeStyle;rounded=0;orthogonalLoop=1;jettySize=auto;html=1;exitX=1;exitY=0.5;exitDx=0;exitDy=0;startArrow=none;startFill=0;" parent="1" source="M-t3Y8hKI3yOIpSZZMev-6" edge="1">
          <mxGeometry relative="1" as="geometry">
            <mxPoint x="240" y="190" as="targetPoint" />
          </mxGeometry>
        </mxCell>
        <mxCell id="M-t3Y8hKI3yOIpSZZMev-23" value="Message brocker" style="swimlane;" parent="1" vertex="1">
          <mxGeometry x="516" y="684" width="270" height="80" as="geometry" />
        </mxCell>
        <mxCell id="M-t3Y8hKI3yOIpSZZMev-24" value="Some logic" style="text;html=1;align=center;verticalAlign=middle;resizable=0;points=[];autosize=1;strokeColor=none;fillColor=none;" parent="M-t3Y8hKI3yOIpSZZMev-23" vertex="1">
          <mxGeometry x="95" y="30" width="80" height="30" as="geometry" />
        </mxCell>
        <mxCell id="VC21p1BJZLmZtyOvGM38-3" value="DB Scheme" style="swimlane;horizontal=0;" parent="1" vertex="1">
          <mxGeometry x="-750" y="330" width="720" height="620" as="geometry" />
        </mxCell>
        <mxCell id="VC21p1BJZLmZtyOvGM38-5" value="User" style="swimlane;fontStyle=0;childLayout=stackLayout;horizontal=1;startSize=30;horizontalStack=0;resizeParent=1;resizeParentMax=0;resizeLast=0;collapsible=1;marginBottom=0;" parent="VC21p1BJZLmZtyOvGM38-3" vertex="1">
          <mxGeometry x="290" y="20" width="140" height="150" as="geometry" />
        </mxCell>
        <mxCell id="VC21p1BJZLmZtyOvGM38-6" value="Id" style="text;strokeColor=none;fillColor=none;align=left;verticalAlign=middle;spacingLeft=4;spacingRight=4;overflow=hidden;points=[[0,0.5],[1,0.5]];portConstraint=eastwest;rotatable=0;" parent="VC21p1BJZLmZtyOvGM38-5" vertex="1">
          <mxGeometry y="30" width="140" height="30" as="geometry" />
        </mxCell>
        <mxCell id="VC21p1BJZLmZtyOvGM38-7" value="TenantId" style="text;strokeColor=none;fillColor=none;align=left;verticalAlign=middle;spacingLeft=4;spacingRight=4;overflow=hidden;points=[[0,0.5],[1,0.5]];portConstraint=eastwest;rotatable=0;" parent="VC21p1BJZLmZtyOvGM38-5" vertex="1">
          <mxGeometry y="60" width="140" height="30" as="geometry" />
        </mxCell>
        <mxCell id="VC21p1BJZLmZtyOvGM38-11" value="Role" style="text;strokeColor=none;fillColor=none;align=left;verticalAlign=middle;spacingLeft=4;spacingRight=4;overflow=hidden;points=[[0,0.5],[1,0.5]];portConstraint=eastwest;rotatable=0;" parent="VC21p1BJZLmZtyOvGM38-5" vertex="1">
          <mxGeometry y="90" width="140" height="30" as="geometry" />
        </mxCell>
        <mxCell id="VC21p1BJZLmZtyOvGM38-8" value="Deleted" style="text;strokeColor=none;fillColor=none;align=left;verticalAlign=middle;spacingLeft=4;spacingRight=4;overflow=hidden;points=[[0,0.5],[1,0.5]];portConstraint=eastwest;rotatable=0;" parent="VC21p1BJZLmZtyOvGM38-5" vertex="1">
          <mxGeometry y="120" width="140" height="30" as="geometry" />
        </mxCell>
        <mxCell id="VC21p1BJZLmZtyOvGM38-12" value="UserData" style="swimlane;fontStyle=0;childLayout=stackLayout;horizontal=1;startSize=30;horizontalStack=0;resizeParent=1;resizeParentMax=0;resizeLast=0;collapsible=1;marginBottom=0;" parent="VC21p1BJZLmZtyOvGM38-3" vertex="1">
          <mxGeometry x="550" y="20" width="140" height="360" as="geometry" />
        </mxCell>
        <mxCell id="VC21p1BJZLmZtyOvGM38-13" value="Id" style="text;strokeColor=none;fillColor=none;align=left;verticalAlign=middle;spacingLeft=4;spacingRight=4;overflow=hidden;points=[[0,0.5],[1,0.5]];portConstraint=eastwest;rotatable=0;" parent="VC21p1BJZLmZtyOvGM38-12" vertex="1">
          <mxGeometry y="30" width="140" height="30" as="geometry" />
        </mxCell>
        <mxCell id="VC21p1BJZLmZtyOvGM38-14" value="UserId" style="text;strokeColor=none;fillColor=none;align=left;verticalAlign=middle;spacingLeft=4;spacingRight=4;overflow=hidden;points=[[0,0.5],[1,0.5]];portConstraint=eastwest;rotatable=0;" parent="VC21p1BJZLmZtyOvGM38-12" vertex="1">
          <mxGeometry y="60" width="140" height="30" as="geometry" />
        </mxCell>
        <mxCell id="VC21p1BJZLmZtyOvGM38-15" value="FirstName" style="text;strokeColor=none;fillColor=none;align=left;verticalAlign=middle;spacingLeft=4;spacingRight=4;overflow=hidden;points=[[0,0.5],[1,0.5]];portConstraint=eastwest;rotatable=0;" parent="VC21p1BJZLmZtyOvGM38-12" vertex="1">
          <mxGeometry y="90" width="140" height="30" as="geometry" />
        </mxCell>
        <mxCell id="VC21p1BJZLmZtyOvGM38-16" value="LastName" style="text;strokeColor=none;fillColor=none;align=left;verticalAlign=middle;spacingLeft=4;spacingRight=4;overflow=hidden;points=[[0,0.5],[1,0.5]];portConstraint=eastwest;rotatable=0;" parent="VC21p1BJZLmZtyOvGM38-12" vertex="1">
          <mxGeometry y="120" width="140" height="30" as="geometry" />
        </mxCell>
        <mxCell id="VC21p1BJZLmZtyOvGM38-17" value="Patronym" style="text;strokeColor=none;fillColor=none;align=left;verticalAlign=middle;spacingLeft=4;spacingRight=4;overflow=hidden;points=[[0,0.5],[1,0.5]];portConstraint=eastwest;rotatable=0;" parent="VC21p1BJZLmZtyOvGM38-12" vertex="1">
          <mxGeometry y="150" width="140" height="30" as="geometry" />
        </mxCell>
        <mxCell id="VC21p1BJZLmZtyOvGM38-18" value="Email" style="text;strokeColor=none;fillColor=none;align=left;verticalAlign=middle;spacingLeft=4;spacingRight=4;overflow=hidden;points=[[0,0.5],[1,0.5]];portConstraint=eastwest;rotatable=0;" parent="VC21p1BJZLmZtyOvGM38-12" vertex="1">
          <mxGeometry y="180" width="140" height="30" as="geometry" />
        </mxCell>
        <mxCell id="VC21p1BJZLmZtyOvGM38-20" value="Country" style="text;strokeColor=none;fillColor=none;align=left;verticalAlign=middle;spacingLeft=4;spacingRight=4;overflow=hidden;points=[[0,0.5],[1,0.5]];portConstraint=eastwest;rotatable=0;" parent="VC21p1BJZLmZtyOvGM38-12" vertex="1">
          <mxGeometry y="210" width="140" height="30" as="geometry" />
        </mxCell>
        <mxCell id="VC21p1BJZLmZtyOvGM38-21" value="Region" style="text;strokeColor=none;fillColor=none;align=left;verticalAlign=middle;spacingLeft=4;spacingRight=4;overflow=hidden;points=[[0,0.5],[1,0.5]];portConstraint=eastwest;rotatable=0;" parent="VC21p1BJZLmZtyOvGM38-12" vertex="1">
          <mxGeometry y="240" width="140" height="30" as="geometry" />
        </mxCell>
        <mxCell id="VC21p1BJZLmZtyOvGM38-19" value="City" style="text;strokeColor=none;fillColor=none;align=left;verticalAlign=middle;spacingLeft=4;spacingRight=4;overflow=hidden;points=[[0,0.5],[1,0.5]];portConstraint=eastwest;rotatable=0;" parent="VC21p1BJZLmZtyOvGM38-12" vertex="1">
          <mxGeometry y="270" width="140" height="30" as="geometry" />
        </mxCell>
        <mxCell id="VC21p1BJZLmZtyOvGM38-22" value="Address" style="text;strokeColor=none;fillColor=none;align=left;verticalAlign=middle;spacingLeft=4;spacingRight=4;overflow=hidden;points=[[0,0.5],[1,0.5]];portConstraint=eastwest;rotatable=0;" parent="VC21p1BJZLmZtyOvGM38-12" vertex="1">
          <mxGeometry y="300" width="140" height="30" as="geometry" />
        </mxCell>
        <mxCell id="VC21p1BJZLmZtyOvGM38-23" value="PostalCode" style="text;strokeColor=none;fillColor=none;align=left;verticalAlign=middle;spacingLeft=4;spacingRight=4;overflow=hidden;points=[[0,0.5],[1,0.5]];portConstraint=eastwest;rotatable=0;" parent="VC21p1BJZLmZtyOvGM38-12" vertex="1">
          <mxGeometry y="330" width="140" height="30" as="geometry" />
        </mxCell>
        <mxCell id="VC21p1BJZLmZtyOvGM38-24" value="" style="edgeStyle=orthogonalEdgeStyle;rounded=0;orthogonalLoop=1;jettySize=auto;html=1;endArrow=ERone;endFill=0;startArrow=ERone;startFill=0;" parent="VC21p1BJZLmZtyOvGM38-3" source="VC21p1BJZLmZtyOvGM38-6" target="VC21p1BJZLmZtyOvGM38-14" edge="1">
          <mxGeometry relative="1" as="geometry" />
        </mxCell>
        <mxCell id="VC21p1BJZLmZtyOvGM38-25" value="Tenant" style="swimlane;fontStyle=0;childLayout=stackLayout;horizontal=1;startSize=30;horizontalStack=0;resizeParent=1;resizeParentMax=0;resizeLast=0;collapsible=1;marginBottom=0;" parent="VC21p1BJZLmZtyOvGM38-3" vertex="1">
          <mxGeometry x="33" y="50" width="140" height="90" as="geometry" />
        </mxCell>
        <mxCell id="VC21p1BJZLmZtyOvGM38-26" value="Id" style="text;strokeColor=none;fillColor=none;align=left;verticalAlign=middle;spacingLeft=4;spacingRight=4;overflow=hidden;points=[[0,0.5],[1,0.5]];portConstraint=eastwest;rotatable=0;" parent="VC21p1BJZLmZtyOvGM38-25" vertex="1">
          <mxGeometry y="30" width="140" height="30" as="geometry" />
        </mxCell>
        <mxCell id="VC21p1BJZLmZtyOvGM38-29" value="DatetCreate" style="text;strokeColor=none;fillColor=none;align=left;verticalAlign=middle;spacingLeft=4;spacingRight=4;overflow=hidden;points=[[0,0.5],[1,0.5]];portConstraint=eastwest;rotatable=0;" parent="VC21p1BJZLmZtyOvGM38-25" vertex="1">
          <mxGeometry y="60" width="140" height="30" as="geometry" />
        </mxCell>
        <mxCell id="VC21p1BJZLmZtyOvGM38-31" value="" style="edgeStyle=orthogonalEdgeStyle;rounded=0;orthogonalLoop=1;jettySize=auto;html=1;startArrow=ERone;startFill=0;endArrow=ERmany;endFill=0;" parent="VC21p1BJZLmZtyOvGM38-3" source="VC21p1BJZLmZtyOvGM38-26" target="VC21p1BJZLmZtyOvGM38-7" edge="1">
          <mxGeometry relative="1" as="geometry" />
        </mxCell>
        <mxCell id="VC21p1BJZLmZtyOvGM38-32" value="Companion" style="swimlane;fontStyle=0;childLayout=stackLayout;horizontal=1;startSize=30;horizontalStack=0;resizeParent=1;resizeParentMax=0;resizeLast=0;collapsible=1;marginBottom=0;" parent="VC21p1BJZLmZtyOvGM38-3" vertex="1">
          <mxGeometry x="53" y="210" width="140" height="150" as="geometry" />
        </mxCell>
        <mxCell id="VC21p1BJZLmZtyOvGM38-33" value="Id" style="text;strokeColor=none;fillColor=none;align=left;verticalAlign=middle;spacingLeft=4;spacingRight=4;overflow=hidden;points=[[0,0.5],[1,0.5]];portConstraint=eastwest;rotatable=0;" parent="VC21p1BJZLmZtyOvGM38-32" vertex="1">
          <mxGeometry y="30" width="140" height="30" as="geometry" />
        </mxCell>
        <mxCell id="VC21p1BJZLmZtyOvGM38-34" value="GiftGiverId" style="text;strokeColor=none;fillColor=none;align=left;verticalAlign=middle;spacingLeft=4;spacingRight=4;overflow=hidden;points=[[0,0.5],[1,0.5]];portConstraint=eastwest;rotatable=0;" parent="VC21p1BJZLmZtyOvGM38-32" vertex="1">
          <mxGeometry y="60" width="140" height="30" as="geometry" />
        </mxCell>
        <mxCell id="VC21p1BJZLmZtyOvGM38-35" value="GiftAccceptorId" style="text;strokeColor=none;fillColor=none;align=left;verticalAlign=middle;spacingLeft=4;spacingRight=4;overflow=hidden;points=[[0,0.5],[1,0.5]];portConstraint=eastwest;rotatable=0;" parent="VC21p1BJZLmZtyOvGM38-32" vertex="1">
          <mxGeometry y="90" width="140" height="30" as="geometry" />
        </mxCell>
        <mxCell id="VC21p1BJZLmZtyOvGM38-36" value="EventId" style="text;strokeColor=none;fillColor=none;align=left;verticalAlign=middle;spacingLeft=4;spacingRight=4;overflow=hidden;points=[[0,0.5],[1,0.5]];portConstraint=eastwest;rotatable=0;" parent="VC21p1BJZLmZtyOvGM38-32" vertex="1">
          <mxGeometry y="120" width="140" height="30" as="geometry" />
        </mxCell>
        <mxCell id="VC21p1BJZLmZtyOvGM38-39" style="edgeStyle=orthogonalEdgeStyle;rounded=0;orthogonalLoop=1;jettySize=auto;html=1;exitX=1;exitY=0.5;exitDx=0;exitDy=0;startArrow=ERone;startFill=0;endArrow=ERone;endFill=0;entryX=-0.003;entryY=0.763;entryDx=0;entryDy=0;entryPerimeter=0;" parent="VC21p1BJZLmZtyOvGM38-3" source="VC21p1BJZLmZtyOvGM38-35" target="VC21p1BJZLmZtyOvGM38-6" edge="1">
          <mxGeometry relative="1" as="geometry">
            <Array as="points">
              <mxPoint x="263" y="315" />
              <mxPoint x="263" y="73" />
            </Array>
          </mxGeometry>
        </mxCell>
        <mxCell id="VC21p1BJZLmZtyOvGM38-41" value="Event" style="swimlane;fontStyle=0;childLayout=stackLayout;horizontal=1;startSize=30;horizontalStack=0;resizeParent=1;resizeParentMax=0;resizeLast=0;collapsible=1;marginBottom=0;" parent="VC21p1BJZLmZtyOvGM38-3" vertex="1">
          <mxGeometry x="290" y="380" width="140" height="210" as="geometry" />
        </mxCell>
        <mxCell id="VC21p1BJZLmZtyOvGM38-42" value="Id" style="text;strokeColor=none;fillColor=none;align=left;verticalAlign=middle;spacingLeft=4;spacingRight=4;overflow=hidden;points=[[0,0.5],[1,0.5]];portConstraint=eastwest;rotatable=0;" parent="VC21p1BJZLmZtyOvGM38-41" vertex="1">
          <mxGeometry y="30" width="140" height="30" as="geometry" />
        </mxCell>
        <mxCell id="VC21p1BJZLmZtyOvGM38-43" value="DateBegin" style="text;strokeColor=none;fillColor=none;align=left;verticalAlign=middle;spacingLeft=4;spacingRight=4;overflow=hidden;points=[[0,0.5],[1,0.5]];portConstraint=eastwest;rotatable=0;" parent="VC21p1BJZLmZtyOvGM38-41" vertex="1">
          <mxGeometry y="60" width="140" height="30" as="geometry" />
        </mxCell>
        <mxCell id="VC21p1BJZLmZtyOvGM38-44" value="DateEnd" style="text;strokeColor=none;fillColor=none;align=left;verticalAlign=middle;spacingLeft=4;spacingRight=4;overflow=hidden;points=[[0,0.5],[1,0.5]];portConstraint=eastwest;rotatable=0;" parent="VC21p1BJZLmZtyOvGM38-41" vertex="1">
          <mxGeometry y="90" width="140" height="30" as="geometry" />
        </mxCell>
        <mxCell id="VC21p1BJZLmZtyOvGM38-45" value="Header" style="text;strokeColor=none;fillColor=none;align=left;verticalAlign=middle;spacingLeft=4;spacingRight=4;overflow=hidden;points=[[0,0.5],[1,0.5]];portConstraint=eastwest;rotatable=0;" parent="VC21p1BJZLmZtyOvGM38-41" vertex="1">
          <mxGeometry y="120" width="140" height="30" as="geometry" />
        </mxCell>
        <mxCell id="VC21p1BJZLmZtyOvGM38-46" value="Description" style="text;strokeColor=none;fillColor=none;align=left;verticalAlign=middle;spacingLeft=4;spacingRight=4;overflow=hidden;points=[[0,0.5],[1,0.5]];portConstraint=eastwest;rotatable=0;" parent="VC21p1BJZLmZtyOvGM38-41" vertex="1">
          <mxGeometry y="150" width="140" height="30" as="geometry" />
        </mxCell>
        <mxCell id="VC21p1BJZLmZtyOvGM38-47" value="DateCreate" style="text;strokeColor=none;fillColor=none;align=left;verticalAlign=middle;spacingLeft=4;spacingRight=4;overflow=hidden;points=[[0,0.5],[1,0.5]];portConstraint=eastwest;rotatable=0;" parent="VC21p1BJZLmZtyOvGM38-41" vertex="1">
          <mxGeometry y="180" width="140" height="30" as="geometry" />
        </mxCell>
        <mxCell id="VC21p1BJZLmZtyOvGM38-48" style="edgeStyle=orthogonalEdgeStyle;rounded=0;orthogonalLoop=1;jettySize=auto;html=1;exitX=0;exitY=0.5;exitDx=0;exitDy=0;entryX=1;entryY=0.5;entryDx=0;entryDy=0;startArrow=ERone;startFill=0;endArrow=ERone;endFill=0;" parent="VC21p1BJZLmZtyOvGM38-3" source="VC21p1BJZLmZtyOvGM38-42" target="VC21p1BJZLmZtyOvGM38-36" edge="1">
          <mxGeometry relative="1" as="geometry" />
        </mxCell>
        <mxCell id="VC21p1BJZLmZtyOvGM38-40" style="edgeStyle=orthogonalEdgeStyle;rounded=0;orthogonalLoop=1;jettySize=auto;html=1;startArrow=ERone;startFill=0;endArrow=ERone;endFill=0;entryX=0;entryY=0.25;entryDx=0;entryDy=0;" parent="VC21p1BJZLmZtyOvGM38-3" source="VC21p1BJZLmZtyOvGM38-34" target="VC21p1BJZLmZtyOvGM38-5" edge="1">
          <mxGeometry relative="1" as="geometry">
            <mxPoint x="310" y="80" as="targetPoint" />
            <Array as="points">
              <mxPoint x="210" y="285" />
              <mxPoint x="210" y="58" />
            </Array>
          </mxGeometry>
        </mxCell>
        <mxCell id="VC21p1BJZLmZtyOvGM38-49" value="Interest" style="swimlane;fontStyle=0;childLayout=stackLayout;horizontal=1;startSize=30;horizontalStack=0;resizeParent=1;resizeParentMax=0;resizeLast=0;collapsible=1;marginBottom=0;" parent="VC21p1BJZLmZtyOvGM38-3" vertex="1">
          <mxGeometry x="290" y="225" width="140" height="120" as="geometry" />
        </mxCell>
        <mxCell id="VC21p1BJZLmZtyOvGM38-50" value="Id" style="text;strokeColor=none;fillColor=none;align=left;verticalAlign=middle;spacingLeft=4;spacingRight=4;overflow=hidden;points=[[0,0.5],[1,0.5]];portConstraint=eastwest;rotatable=0;" parent="VC21p1BJZLmZtyOvGM38-49" vertex="1">
          <mxGeometry y="30" width="140" height="30" as="geometry" />
        </mxCell>
        <mxCell id="VC21p1BJZLmZtyOvGM38-51" value="UserId" style="text;strokeColor=none;fillColor=none;align=left;verticalAlign=middle;spacingLeft=4;spacingRight=4;overflow=hidden;points=[[0,0.5],[1,0.5]];portConstraint=eastwest;rotatable=0;" parent="VC21p1BJZLmZtyOvGM38-49" vertex="1">
          <mxGeometry y="60" width="140" height="30" as="geometry" />
        </mxCell>
        <mxCell id="VC21p1BJZLmZtyOvGM38-52" value="Description" style="text;strokeColor=none;fillColor=none;align=left;verticalAlign=middle;spacingLeft=4;spacingRight=4;overflow=hidden;points=[[0,0.5],[1,0.5]];portConstraint=eastwest;rotatable=0;" parent="VC21p1BJZLmZtyOvGM38-49" vertex="1">
          <mxGeometry y="90" width="140" height="30" as="geometry" />
        </mxCell>
        <mxCell id="VC21p1BJZLmZtyOvGM38-53" style="edgeStyle=orthogonalEdgeStyle;rounded=0;orthogonalLoop=1;jettySize=auto;html=1;entryX=1.003;entryY=0.767;entryDx=0;entryDy=0;entryPerimeter=0;startArrow=ERmany;startFill=0;endArrow=ERone;endFill=0;" parent="VC21p1BJZLmZtyOvGM38-3" source="VC21p1BJZLmZtyOvGM38-51" target="VC21p1BJZLmZtyOvGM38-6" edge="1">
          <mxGeometry relative="1" as="geometry">
            <Array as="points">
              <mxPoint x="450" y="300" />
              <mxPoint x="450" y="73" />
            </Array>
          </mxGeometry>
        </mxCell>
        <mxCell id="VC21p1BJZLmZtyOvGM38-54" value="" style="endArrow=none;html=1;rounded=0;entryX=1;entryY=0;entryDx=0;entryDy=0;exitX=0;exitY=0;exitDx=0;exitDy=15;exitPerimeter=0;" parent="1" source="W8EOp4MmjeI2fesuO7Yh-1" target="VC21p1BJZLmZtyOvGM38-3" edge="1">
          <mxGeometry width="50" height="50" relative="1" as="geometry">
            <mxPoint x="-150" y="600" as="sourcePoint" />
            <mxPoint x="-100" y="550" as="targetPoint" />
          </mxGeometry>
        </mxCell>
        <mxCell id="VC21p1BJZLmZtyOvGM38-55" value="" style="endArrow=none;html=1;rounded=0;entryX=0;entryY=1;entryDx=0;entryDy=-15;entryPerimeter=0;exitX=1;exitY=1;exitDx=0;exitDy=0;" parent="1" source="VC21p1BJZLmZtyOvGM38-3" target="W8EOp4MmjeI2fesuO7Yh-1" edge="1">
          <mxGeometry width="50" height="50" relative="1" as="geometry">
            <mxPoint x="-30" y="990" as="sourcePoint" />
            <mxPoint x="20" y="940" as="targetPoint" />
          </mxGeometry>
        </mxCell>
      </root>
    </mxGraphModel>
  </diagram>
</mxfile>
